<?xml version="1.0" encoding="utf-8"?>
<!-- Generator: Adobe Illustrator 22.1.0, SVG Export Plug-In . SVG Version: 6.00 Build 0)  -->
<svg version="1.1" id="Layer_1" xmlns="http://www.w3.org/2000/svg" xmlns:xlink="http://www.w3.org/1999/xlink" x="0px" y="0px"
	 viewBox="0 0 1792 1792" style="enable-background:new 0 0 1792 1792;" xml:space="preserve">
<style type="text/css">
	.st0{fill:#FDF5E6;}
</style>
<g>
	<path class="st0" d="M1097.2,269.5c-22.8-30.3-52.8-45.5-90.1-45.5H168c-15.2,0-28.3,5.5-39.4,16.6S112,264.8,112,280
		c0,18.7,0.4,33.1,1.3,43.3s3.6,22,8.3,35.4s12,26,21.9,37.6c5.8-18.1,16.2-32.7,31.1-43.8S205.9,336,224,336h728v28H224
		c-15.2,0-28.3,5.5-39.4,16.6S168,404.8,168,420c0,25.7,0.9,42.6,2.6,50.8c4.7,25.7,17.5,47,38.5,63.9S253.8,560,280,560h639.6
		c23.3,0,43.2,8.2,59.5,24.5s24.5,36.2,24.5,59.5c0,8.8-1.5,17.5-4.4,26.2l-56,168c-5.8,16.9-16,30.8-30.6,41.6s-30.9,16.2-49,16.2
		H476c-38.5,0-71.5,13.7-98.9,41.1S336,997.5,336,1036v28c0,15.2,5.5,28.3,16.6,39.4s24.2,16.6,39.4,16.6h490.9
		c9.3,0,17.8,2,25.4,6.1l277.4,138.2c14,7.6,25.2,18.1,33.7,31.5s12.7,28,12.7,43.8V1512c0,15.2,5.5,28.3,16.6,39.4
		s24.2,16.6,39.4,16.6h336c15.2,0,28.3-5.5,39.4-16.6s16.6-24.2,16.6-39.4v-310.6c0-91.6-27.1-174.4-81.4-248.5L1097.2,269.5z"/>
</g>
</svg>
