<?xml version="1.0" encoding="utf-8"?>
<!-- Generator: Adobe Illustrator 22.1.0, SVG Export Plug-In . SVG Version: 6.00 Build 0)  -->
<svg version="1.1" id="Layer_1" xmlns="http://www.w3.org/2000/svg" xmlns:xlink="http://www.w3.org/1999/xlink" x="0px" y="0px"
	 viewBox="0 0 1792 1792" style="enable-background:new 0 0 1792 1792;" xml:space="preserve">
<style type="text/css">
	.st0{fill:#F9E2B7;}
	.st1{fill:#FDF5E6;}
</style>
<g>
	<path class="st0" d="M1504,1122V624c0-30.7-11-57-33-79s-48.3-33-79-33s-57,11-79,33s-33,48.3-33,79v272h-32V368
		c0-30.7-11-57-33-79s-48.3-33-79-33s-57,11-79,33s-33,48.3-33,79v528h-32V240c0-30.7-11-57-33-79s-48.3-33-79-33s-57,11-79,33
		s-33,48.3-33,79v656h-32V368c0-30.7-11-57-33-79s-48.3-33-79-33s-57,11-79,33s-33,48.3-33,79v784L358,947c-25.3-34-59.3-51-102-51
		c-35.3,0-65.5,12.5-90.5,37.5S128,988.7,128,1024c0,28.7,8.7,54.3,26,77l384,512c25.3,34,59.3,51,102,51h688c22.7,0,43-7.3,61-22
		s29.3-33.3,34-56l76-405C1502.3,1159.7,1504,1140,1504,1122z"/>
	<path class="st1" d="M1389,1642c-18,14.7-38.3,22-61,22H640c-42.7,0-76.7-17-102-51l-384-512c-17.3-22.7-26-48.3-26-77
		c0-35.3,12.5-65.5,37.5-90.5S220.7,896,256,896c42.7,0,76.7,17,102,51l154,205V368c0-30.7,11-57,33-79s48.3-33,79-33s57,11,79,33
		s33,48.3,33,79v528h32V240c0-30.7,11-57,33-79s48.3-33,79-33s57,11,79,33s33,48.3,33,79v656h32V368c0-30.7,11-57,33-79
		s48.3-33,79-33s57,11,79,33s33,48.3,33,79v528h32V624c0-30.7,11-57,33-79s48.3-33,79-33s57,11,79,33s33,48.3,33,79v498
		c0,18-1.7,37.7-5,59l-76,405C1418.3,1608.7,1407,1627.3,1389,1642z"/>
</g>
</svg>
