<?xml version="1.0" encoding="utf-8"?>
<!-- Generator: Adobe Illustrator 22.1.0, SVG Export Plug-In . SVG Version: 6.00 Build 0)  -->
<svg version="1.1" id="Layer_1" xmlns="http://www.w3.org/2000/svg" xmlns:xlink="http://www.w3.org/1999/xlink" x="0px" y="0px"
	 viewBox="0 0 1792 1792" style="enable-background:new 0 0 1792 1792;" xml:space="preserve">
<style type="text/css">
	.st0{fill:#FDF5E6;}
</style>
<g>
	<path class="st0" d="M1424,496c-30.7,0-57,11-79,33s-33,48.3-33,79v32h-32V515c0-26.7-8.3-50.8-25-72.5c-16.7-21.7-38-35.2-64-40.5
		c-9.3-1.3-17-2-23-2c-30.7,0-57,11-79,33s-33,48.3-33,79v128h-32V518c0-34-10.8-63.8-32.5-89.5c-21.7-25.7-49.2-40.2-82.5-43.5
		c-3.3-0.7-7.7-1-13-1c-35.3,0-65.5,12.5-90.5,37.5S768,476.7,768,512v128h-32v-93c0-32-10.7-59.2-32-81.5
		c-21.3-22.3-48-33.5-80-33.5c-30.7,0-57,11-79,33s-33,48.3-33,79v429l-32-30V771c0-32-10.7-59.2-32-81.5
		c-21.3-22.3-48-33.5-80-33.5c-30.7,0-57,11-79,33s-33,48.3-33,79v224c0,31.3,11.7,58.7,35,82l310,296c26,26,39,60,39,102
		c0,17.3,6.3,32.3,19,45s27.7,19,45,19h640c17.3,0,32.3-6.3,45-19s19-27.7,19-45v-25c0-27.3,3.3-53,10-77l108-436
		c6.7-24,10-49.7,10-77V611c0-32-10.7-59.2-32-81.5C1482.7,507.2,1456,496,1424,496z"/>
</g>
</svg>
