<?xml version="1.0" encoding="utf-8"?>
<!-- Generator: Adobe Illustrator 22.1.0, SVG Export Plug-In . SVG Version: 6.00 Build 0)  -->
<svg version="1.1" id="Layer_1" xmlns="http://www.w3.org/2000/svg" xmlns:xlink="http://www.w3.org/1999/xlink" x="0px" y="0px"
	 viewBox="0 0 1792 1792" style="enable-background:new 0 0 1792 1792;" xml:space="preserve">
<style type="text/css">
	.st0{fill:#F9E2B7;}
</style>
<g>
	<path class="st0" d="M1136,1148c-32.7-6.7-59.5-23.3-80.5-50s-31.5-56.7-31.5-90v-55l-155,71l-163,74c-20,9.3-36,23.2-48,41.5
		s-18,38.5-18,60.5c0,30.7,11,57,33,79s48.3,33,79,33c17.3,0,32.7-3.3,46-10L1136,1148z"/>
	<path class="st0" d="M1024,918V720c0-42,15.3-77.3,46-106l111-102h-69L462,264c-16-5.3-31.3-8-46-8c-35.3,0-65.5,12.5-90.5,37.5
		S288,348.7,288,384c0,26.7,7.5,51,22.5,73s34.8,37.7,59.5,47l526,200v64H256c-35.3,0-65.5,12.5-90.5,37.5S128,860.7,128,896
		s12.5,65.5,37.5,90.5s55.2,37.5,90.5,37.5h535L1024,918z"/>
	<path class="st0" d="M1326,1324.5c12-18.3,18-38.5,18-60.5c0-30.7-11-57-33-79s-48.3-33-79-33c-17.3,0-32.7,3.3-46,10l-290,132
		c-18.7,8.7-31,14.3-37,17s-16.2,8.3-30.5,17s-24.2,16.5-29.5,23.5s-10.7,16.7-16,29s-8,25.8-8,40.5c0,33.3,10.5,60.7,31.5,82
		s48.2,32,81.5,32c13.3,0,26-3,38-9l352-160C1298,1356.7,1314,1342.8,1326,1324.5z"/>
	<path class="st0" d="M1536,512h-308l-136,126c-24,22-36,49.3-36,82v296c0,30.7,11,56.3,33,77s48.3,31,79,31s57-11.7,79-35
		s33-50.3,33-81V800h32v208c0,46.7-19,84.7-57,114c34.7,5.3,63.5,21.5,86.5,48.5s34.5,58.2,34.5,93.5c0,28-7.7,54-23,78
		s-35.7,41.7-61,53l-310,141h91c54.7,0,106.3-6.3,155-19l339-85c28.7-7.3,52-22.5,70-45.5s27-49.2,27-78.5V640
		c0-35.3-12.5-65.5-37.5-90.5S1571.3,512,1536,512z"/>
</g>
</svg>
