<?xml version="1.0" encoding="utf-8"?>
<!-- Generator: Adobe Illustrator 22.1.0, SVG Export Plug-In . SVG Version: 6.00 Build 0)  -->
<svg version="1.1" id="Layer_1" xmlns="http://www.w3.org/2000/svg" xmlns:xlink="http://www.w3.org/1999/xlink" x="0px" y="0px"
	 viewBox="0 0 1792 1792" style="enable-background:new 0 0 1792 1792;" xml:space="preserve">
<style type="text/css">
	.st0{fill:#FDF5E6;}
</style>
<g>
	<path class="st0" d="M1302,798c6.7-13.3,10-28.7,10-46c0-30.7-11-57-33-79s-48.3-33-79-33c-22,0-42.2,6-60.5,18s-32.2,28-41.5,48
		l-74,163l-71,155h55c33.3,0,63.3,10.5,90,31.5s43.3,47.8,50,80.5L1302,798z"/>
	<path class="st0" d="M1024,791V256c0-35.3-12.5-65.5-37.5-90.5S931.3,128,896,128s-65.5,12.5-90.5,37.5S768,220.7,768,256v640h-64
		L504,370c-9.3-24.7-25-44.5-47-59.5S410.7,288,384,288c-35.3,0-65.5,12.5-90.5,37.5S256,380.7,256,416c0,14.7,2.7,30,8,46l248,650
		v69l102-111c28.7-30.7,64-46,106-46h198L1024,791z"/>
	<path class="st0" d="M1366,1278l160-352c6-12,9-24.7,9-38c0-33.3-10.7-60.5-32-81.5s-48.7-31.5-82-31.5c-14.7,0-28.2,2.7-40.5,8
		s-22,10.7-29,16s-14.8,15.2-23.5,29.5s-14.3,24.5-17,30.5s-8.3,18.3-17,37l-132,290c-6.7,13.3-10,28.7-10,46c0,30.7,11,57,33,79
		s48.3,33,79,33c22,0,42.2-6,60.5-18S1356.7,1298,1366,1278z"/>
	<path class="st0" d="M549.5,1626.5c25,25,55.2,37.5,90.5,37.5h668c29.3,0,55.5-9,78.5-27s38.2-41.3,45.5-70l85-339
		c12.7-48.7,19-100.3,19-155v-91l-141,310c-11.3,25.3-29,45.7-53,61s-50,23-78,23c-35.3,0-66.5-11.5-93.5-34.5s-43.2-51.8-48.5-86.5
		c-29.3,38-67.3,57-114,57H800v-32h208c30.7,0,57.7-11,81-33s35-48.3,35-79s-10.3-57-31-79s-46.3-33-77-33H720c-32.7,0-60,12-82,36
		l-126,136v308C512,1571.3,524.5,1601.5,549.5,1626.5z"/>
</g>
</svg>
