<?xml version="1.0" encoding="utf-8"?>
<!-- Generator: Adobe Illustrator 22.1.0, SVG Export Plug-In . SVG Version: 6.00 Build 0)  -->
<svg version="1.1" id="Layer_1" xmlns="http://www.w3.org/2000/svg" xmlns:xlink="http://www.w3.org/1999/xlink" x="0px" y="0px"
	 viewBox="0 0 1792 1792" style="enable-background:new 0 0 1792 1792;" xml:space="preserve">
<style type="text/css">
	.st0{fill:#FDF5E6;}
</style>
<g>
	<path class="st0" d="M1567.1,433.1c-23.6,0-45.1,7.9-64.4,23.8c-19.3,15.9-31.7,35.3-37.3,58.3L1372.9,896h-24.3l123.2-510.5
		c1.9-8.7,2.8-17.4,2.8-26.1c0-29.2-10-54.1-29.9-74.7c-19.9-20.5-44.8-30.8-74.7-30.8c-23.6,0-45,7.5-63.9,22.4
		s-31.3,34.2-36.9,57.9L1134,896h-118.5L862.4,259.5c-5.6-23.6-17.9-42.9-36.9-57.9c-19-14.9-40.3-22.4-63.9-22.4
		c-29.9,0-54.6,10.6-74.2,31.7c-19.6,21.2-29.4,46.7-29.4,76.5c0,8.7,0.9,17.4,2.8,26.1l140,582.4h-24.3L668.3,446.1
		c-5.6-23.6-17.9-42.9-36.9-57.9c-19-14.9-40.6-22.4-64.9-22.4c-29.2,0-53.8,10.6-73.7,31.7c-19.9,21.2-29.9,46.4-29.9,75.6
		c0,6.8,1.2,15.9,3.7,27.1c1.9,8.1,14,58.2,36.4,150.3c22.4,92.1,43.6,179.8,63.5,263.2s29.9,126.3,29.9,128.8v211.9l-286.5-214.7
		c-21.2-16.2-45.1-24.3-71.9-24.3c-32.4,0-60.2,11.4-83.5,34.1c-23.3,22.7-35,50.2-35,82.6c0,41.7,17.4,75.9,52.3,102.7l473.2,353.7
		c21.2,16.2,44.8,24.3,70.9,24.3h647.7c20.5,0,38.9-6.4,55.1-19.1c16.2-12.8,26.8-29.1,31.7-49l93.3-374.3c5-18.7,8.1-46,9.3-82.1
		c1.2-36.1,4-62.8,8.4-80.3l108.3-446.1c1.9-7.5,2.8-15.6,2.8-24.3c0-28.6-10.3-53.2-30.8-73.7
		C1621.2,443.3,1596.3,433.1,1567.1,433.1z"/>
</g>
</svg>
